<svg width="286" height="291" viewBox="0 0 286 291" fill="none" xmlns="http://www.w3.org/2000/svg">
<rect x="7" y="51" width="206" height="36" rx="1.81069" fill="#F3F3F3"/>
<rect x="7" y="102" width="206" height="36" rx="1.81069" fill="#F3F3F3"/>
<rect x="7" width="206" height="36" rx="1.81069" fill="#F3F3F3"/>
<rect x="7" y="204" width="206" height="36" rx="1.81069" fill="#F3F3F3"/>
<rect x="7" y="255" width="206" height="36" rx="1.81069" fill="#F3F3F3"/>
<rect x="7" y="153" width="206" height="36" rx="1.81069" fill="#F3F3F3"/>
<rect x="4" y="97.3496" width="52.5099" height="15.3908" rx="1.81069" fill="#FCEFFA"/>
<g filter="url(#filter0_d_110_435)">
<rect x="27" y="164" width="231.786" height="69" rx="2.67961" fill="white"/>
</g>
<rect x="37.0486" y="177.398" width="44.8835" height="42.8738" rx="2.67961" fill="#66C085"/>
<rect x="90.6408" y="177.398" width="152.738" height="11.3883" rx="1.33981" fill="#66C085" fill-opacity="0.11"/>
<rect x="90.6408" y="196.155" width="38.8544" height="11.3883" rx="1.33981" fill="#66C085" fill-opacity="0.11"/>
<g clip-path="url(#clip0_110_435)">
<path d="M65.1845 193.476H53.1262C52.3863 193.476 51.7864 194.076 51.7864 194.816V202.854C51.7864 203.594 52.3863 204.194 53.1262 204.194H65.1845C65.9244 204.194 66.5243 203.594 66.5243 202.854V194.816C66.5243 194.076 65.9244 193.476 65.1845 193.476Z" stroke="white" stroke-width="1.33981" stroke-linecap="round" stroke-linejoin="round"/>
<path d="M51.7864 197.495H66.5243" stroke="white" stroke-width="1.33981" stroke-linecap="round" stroke-linejoin="round"/>
</g>
<defs>
<filter id="filter0_d_110_435" x="0.203884" y="139.883" width="285.379" height="122.592" filterUnits="userSpaceOnUse" color-interpolation-filters="sRGB">
<feFlood flood-opacity="0" result="BackgroundImageFix"/>
<feColorMatrix in="SourceAlpha" type="matrix" values="0 0 0 0 0 0 0 0 0 0 0 0 0 0 0 0 0 0 127 0" result="hardAlpha"/>
<feOffset dy="2.67961"/>
<feGaussianBlur stdDeviation="13.3981"/>
<feComposite in2="hardAlpha" operator="out"/>
<feColorMatrix type="matrix" values="0 0 0 0 0 0 0 0 0 0 0 0 0 0 0 0 0 0 0.25 0"/>
<feBlend mode="normal" in2="BackgroundImageFix" result="effect1_dropShadow_110_435"/>
<feBlend mode="normal" in="SourceGraphic" in2="effect1_dropShadow_110_435" result="shape"/>
</filter>
<clipPath id="clip0_110_435">
<rect width="16.0777" height="16.0777" fill="white" transform="translate(51.1166 190.796)"/>
</clipPath>
</defs>
</svg>
